<svg xmlns="http://www.w3.org/2000/svg" viewBox="0 0 128 128">
  <defs>
    <style>
      .a {
        fill: #FF3333;
      }
    </style>
  </defs>
  <polygon class="a" points="36 36 64 52.69 92 36 75.31 64 92 92 64 75.31 36 92 52.69 64 36 36"/>
  <path class="a" d="M36,51.5A15.49,15.49,0,1,1,50.57,41.3l-2.82-1a12.49,12.49,0,1,0-7.48,7.48l1,2.82A15.45,15.45,0,0,1,36,51.5Z"/>
  <path class="a" d="M92,107.5A15.51,15.51,0,0,1,76.5,92a15.22,15.22,0,0,1,.94-5.3l2.81,1a12.49,12.49,0,1,0,7.48-7.48l-1-2.81A15.22,15.22,0,0,1,92,76.5a15.5,15.5,0,0,1,0,31Z"/>
  <path class="a" d="M36,107.5a15.5,15.5,0,0,1,0-31,15.22,15.22,0,0,1,5.3.94l-1,2.81a12.49,12.49,0,1,0,7.48,7.48l2.82-1A15.51,15.51,0,0,1,36,107.5Z"/>
  <path class="a" d="M92,51.5a15.45,15.45,0,0,1-5.3-.93l1-2.82a12.49,12.49,0,1,0-7.48-7.48l-2.81,1A15.22,15.22,0,0,1,76.5,36,15.5,15.5,0,1,1,92,51.5Z"/>
  <rect class="a" x="6" y="6" width="12" height="12"/>
  <rect class="a" x="6" y="110" width="12" height="12"/>
  <rect class="a" x="110" y="110" width="12" height="12"/>
  <rect class="a" x="110" y="6" width="12" height="12"/>
</svg>
