<?xml version="1.0" encoding="utf-8"?>
<!-- Generator: Adobe Illustrator 24.3.0, SVG Export Plug-In . SVG Version: 6.00 Build 0)  -->
<svg version="1.1" id="Layer_1" xmlns="http://www.w3.org/2000/svg" xmlns:xlink="http://www.w3.org/1999/xlink" x="0px" y="0px"
	 viewBox="0 0 128 128" style="enable-background:new 0 0 128 128;" xml:space="preserve">
<style type="text/css">
	.st0{fill:#00B3FD;}
	.st1{fill:#FFFFFF;}
</style>
<g>
	<polygon class="st0" points="64,15 20.7,40 20.7,90 64,115 107.3,90 107.3,40 	"/>
	<g>
		<g>
			<path class="st1" d="M64,68L64,68c-2.21,0-4-1.79-4-4V54c0-2.21,1.79-4,4-4h0c2.21,0,4,1.79,4,4v10C68,66.21,66.21,68,64,68z"/>
		</g>
		<g>
			<path class="st1" d="M67.46,62L67.46,62c1.1,1.91,0.45,4.36-1.46,5.46l-8.66,5c-1.91,1.1-4.36,0.45-5.46-1.46h0
				c-1.1-1.91-0.45-4.36,1.46-5.46l8.66-5C63.91,59.43,66.36,60.09,67.46,62z"/>
		</g>
		<g>
			<path class="st1" d="M60.54,62L60.54,62c1.1-1.91,3.55-2.57,5.46-1.46l8.66,5c1.91,1.1,2.57,3.55,1.46,5.46h0
				c-1.1,1.91-3.55,2.57-5.46,1.46l-8.66-5C60.09,66.36,59.43,63.91,60.54,62z"/>
		</g>
		<path class="st1" d="M64,64"/>
	</g>
	<g>
		<g>
			<path class="st1" d="M64,93L64,93c-2.21,0-4-1.79-4-4V79c0-2.21,1.79-4,4-4h0c2.21,0,4,1.79,4,4v10C68,91.21,66.21,93,64,93z"/>
		</g>
		<g>
			<path class="st1" d="M67.46,87L67.46,87c1.1,1.91,0.45,4.36-1.46,5.46l-8.66,5c-1.91,1.1-4.36,0.45-5.46-1.46h0
				c-1.1-1.91-0.45-4.36,1.46-5.46l8.66-5C63.91,84.43,66.36,85.09,67.46,87z"/>
		</g>
		<g>
			<path class="st1" d="M60.54,87L60.54,87c1.1-1.91,3.55-2.57,5.46-1.46l8.66,5c1.91,1.1,2.57,3.55,1.46,5.46h0
				c-1.1,1.91-3.55,2.57-5.46,1.46l-8.66-5C60.09,91.36,59.43,88.91,60.54,87z"/>
		</g>
		<path class="st1" d="M64,89"/>
	</g>
	<g>
		<g>
			<path class="st1" d="M89.11,74.5L89.11,74.5c1.1,1.91,0.45,4.36-1.46,5.46l-8.66,5c-1.91,1.1-4.36,0.45-5.46-1.46h0
				c-1.1-1.91-0.45-4.36,1.46-5.46l8.66-5C85.56,71.93,88.01,72.59,89.11,74.5z"/>
		</g>
		<g>
			<path class="st1" d="M82.19,74.5L82.19,74.5c1.1-1.91,3.55-2.57,5.46-1.46l8.66,5c1.91,1.1,2.57,3.55,1.46,5.46h0
				c-1.1,1.91-3.55,2.57-5.46,1.46l-8.66-5C81.74,78.86,81.08,76.41,82.19,74.5z"/>
		</g>
		<g>
			<path class="st1" d="M85.65,80.5L85.65,80.5c-2.21,0-4-1.79-4-4v-10c0-2.21,1.79-4,4-4h0c2.21,0,4,1.79,4,4v10
				C89.65,78.71,87.86,80.5,85.65,80.5z"/>
		</g>
		<path class="st1" d="M85.65,76.5"/>
	</g>
	<g>
		<g>
			<path class="st1" d="M89.11,49.5L89.11,49.5c1.1,1.91,0.45,4.36-1.46,5.46l-8.66,5c-1.91,1.1-4.36,0.45-5.46-1.46l0,0
				c-1.1-1.91-0.45-4.36,1.46-5.46l8.66-5C85.56,46.93,88.01,47.59,89.11,49.5z"/>
		</g>
		<g>
			<path class="st1" d="M82.19,49.5L82.19,49.5c1.1-1.91,3.55-2.57,5.46-1.46l8.66,5c1.91,1.1,2.57,3.55,1.46,5.46l0,0
				c-1.1,1.91-3.55,2.57-5.46,1.46l-8.66-5C81.74,53.86,81.08,51.41,82.19,49.5z"/>
		</g>
		<g>
			<path class="st1" d="M85.65,55.5L85.65,55.5c-2.21,0-4-1.79-4-4v-10c0-2.21,1.79-4,4-4h0c2.21,0,4,1.79,4,4v10
				C89.65,53.71,87.86,55.5,85.65,55.5z"/>
		</g>
		<path class="st1" d="M85.65,51.5"/>
	</g>
	<g>
		<g>
			<path class="st1" d="M60.54,37L60.54,37c1.1-1.91,3.55-2.57,5.46-1.46l8.66,5c1.91,1.1,2.57,3.55,1.46,5.46l0,0
				c-1.1,1.91-3.55,2.57-5.46,1.46l-8.66-5C60.09,41.36,59.43,38.91,60.54,37z"/>
		</g>
		<g>
			<path class="st1" d="M64,43L64,43c-2.21,0-4-1.79-4-4V29c0-2.21,1.79-4,4-4h0c2.21,0,4,1.79,4,4v10C68,41.21,66.21,43,64,43z"/>
		</g>
		<g>
			<path class="st1" d="M67.46,37L67.46,37c1.1,1.91,0.45,4.36-1.46,5.46l-8.66,5c-1.91,1.1-4.36,0.45-5.46-1.46l0,0
				c-1.1-1.91-0.45-4.36,1.46-5.46l8.66-5C63.91,34.43,66.36,35.09,67.46,37z"/>
		</g>
		<path class="st1" d="M64,39"/>
	</g>
	<g>
		<g>
			<path class="st1" d="M38.89,49.5L38.89,49.5c1.1-1.91,3.55-2.57,5.46-1.46l8.66,5c1.91,1.1,2.57,3.55,1.46,5.46l0,0
				c-1.1,1.91-3.55,2.57-5.46,1.46l-8.66-5C38.44,53.86,37.78,51.41,38.89,49.5z"/>
		</g>
		<g>
			<path class="st1" d="M42.35,55.5L42.35,55.5c-2.21,0-4-1.79-4-4v-10c0-2.21,1.79-4,4-4h0c2.21,0,4,1.79,4,4v10
				C46.35,53.71,44.56,55.5,42.35,55.5z"/>
		</g>
		<g>
			<path class="st1" d="M45.81,49.5L45.81,49.5c1.1,1.91,0.45,4.36-1.46,5.46l-8.66,5c-1.91,1.1-4.36,0.45-5.46-1.46l0,0
				c-1.1-1.91-0.45-4.36,1.46-5.46l8.66-5C42.26,46.93,44.71,47.59,45.81,49.5z"/>
		</g>
		<path class="st1" d="M42.35,51.5"/>
	</g>
	<g>
		<g>
			<path class="st1" d="M42.35,80.5L42.35,80.5c-2.21,0-4-1.79-4-4v-10c0-2.21,1.79-4,4-4h0c2.21,0,4,1.79,4,4v10
				C46.35,78.71,44.56,80.5,42.35,80.5z"/>
		</g>
		<g>
			<path class="st1" d="M45.81,74.5L45.81,74.5c1.1,1.91,0.45,4.36-1.46,5.46l-8.66,5c-1.91,1.1-4.36,0.45-5.46-1.46h0
				c-1.1-1.91-0.45-4.36,1.46-5.46l8.66-5C42.26,71.93,44.71,72.59,45.81,74.5z"/>
		</g>
		<g>
			<path class="st1" d="M38.89,74.5L38.89,74.5c1.1-1.91,3.55-2.57,5.46-1.46l8.66,5c1.91,1.1,2.57,3.55,1.46,5.46h0
				c-1.1,1.91-3.55,2.57-5.46,1.46l-8.66-5C38.44,78.86,37.78,76.41,38.89,74.5z"/>
		</g>
		<path class="st1" d="M42.35,76.5"/>
	</g>
</g>
</svg>
