<svg xmlns="http://www.w3.org/2000/svg" width="260" height="32" viewBox="0 0 260 32">
  <defs>
    <style>
      .a {
        fill: #231f20;
      }
    </style>
  </defs>
  <g>
    <path class="a" d="M5.33,1.62A.92.92,0,0,1,6,1.3h.64a.9.9,0,0,1,.72.32,1.06,1.06,0,0,1,.29.76v3.3a1.6,1.6,0,0,0,.19.8.55.55,0,0,0,.45.32.53.53,0,0,1,.48.34A1.5,1.5,0,0,1,9,7.92v.74a1.53,1.53,0,0,1-.19.8.55.55,0,0,1-.48.32.53.53,0,0,0-.45.32,1.6,1.6,0,0,0-.19.8v9.44a1.63,1.63,0,0,0,.19.8.55.55,0,0,0,.45.32.54.54,0,0,1,.48.33,1.63,1.63,0,0,1,.19.82v.7a1.51,1.51,0,0,1-.19.8.53.53,0,0,1-.48.32c-.17,0-.32.11-.45.34a1.61,1.61,0,0,0-.19.78v4a1.15,1.15,0,0,1-.29.79.91.91,0,0,1-.72.33H6a.93.93,0,0,1-.71-.33A1.13,1.13,0,0,1,5,29.55v-4a1.12,1.12,0,0,0-.3-.78A.93.93,0,0,0,4,24.43H2.41a.9.9,0,0,1-.7-.32,1.16,1.16,0,0,1-.29-.8v-.7a1.24,1.24,0,0,1,.29-.82.91.91,0,0,1,.7-.33H4a1,1,0,0,0,.71-.32,1.14,1.14,0,0,0,.3-.8V10.9a1.51,1.51,0,0,0-.2-.8.59.59,0,0,0-.52-.32,1.54,1.54,0,0,1-.73-.23A2.58,2.58,0,0,1,2.87,9l-.75-.77a3.12,3.12,0,0,1-.49-.91,2.94,2.94,0,0,1-.21-1V3a1.13,1.13,0,0,1,.29-.77.94.94,0,0,1,.7-.32h.7a.93.93,0,0,1,.72.32A1.09,1.09,0,0,1,4.12,3V5.68a1.91,1.91,0,0,0,.15.82c.09.2.2.3.32.3s.22-.11.3-.32A2.06,2.06,0,0,0,5,5.68V2.38A1,1,0,0,1,5.33,1.62Zm8,8.22a1.12,1.12,0,0,0,.29-.77V7.28a1.16,1.16,0,0,0-.29-.78.92.92,0,0,0-.73-.34H10.19a.89.89,0,0,1-.72-.34A1.12,1.12,0,0,1,9.17,5v-.7a1.12,1.12,0,0,1,.3-.8.9.9,0,0,1,.72-.32H12.6a1,1,0,0,0,.73-.29.93.93,0,0,0,.29-.67.92.92,0,0,1,.29-.68,1,1,0,0,1,.72-.28h.67a1,1,0,0,1,.73.28,1,1,0,0,1,.29.68.9.9,0,0,0,.29.67,1,1,0,0,0,.72.29H19.8a.9.9,0,0,1,.7.32,1.16,1.16,0,0,1,.29.8V5a1.16,1.16,0,0,1-.29.78.89.89,0,0,1-.7.34H17.33a.89.89,0,0,0-.72.34,1.11,1.11,0,0,0-.29.78V9.07a1.07,1.07,0,0,0,.29.77.93.93,0,0,0,.72.32H19.8a.94.94,0,0,1,.7.32,1.16,1.16,0,0,1,.29.8V12a1.18,1.18,0,0,1-.29.78.93.93,0,0,1-.7.34H10.19a.92.92,0,0,1-.72-.34,1.14,1.14,0,0,1-.3-.78v-.74a1.12,1.12,0,0,1,.3-.8.93.93,0,0,1,.72-.32H12.6A1,1,0,0,0,13.33,9.84Zm-3.86,6.3a.93.93,0,0,1,.72-.32h5.75a1.08,1.08,0,0,0,.7-.24.74.74,0,0,0,.29-.59.68.68,0,0,1,.29-.57,1.13,1.13,0,0,1,.72-.23h.67a1.21,1.21,0,0,1,.74.23.7.7,0,0,1,.31.57,1.08,1.08,0,0,0,.14.59.43.43,0,0,0,.38.24.5.5,0,0,1,.43.32,1.57,1.57,0,0,1,.18.77v.71a1.67,1.67,0,0,1-.18.81.49.49,0,0,1-.43.34c-.16,0-.28.11-.38.32a1.88,1.88,0,0,0-.14.8v7.29a2.94,2.94,0,0,1-.22,1,2.3,2.3,0,0,1-.54.83l-.72.83a1.94,1.94,0,0,1-.77.58,2.37,2.37,0,0,1-.95.22H13.07a.89.89,0,0,1-.7-.33,1.15,1.15,0,0,1-.29-.79v-.73a1.11,1.11,0,0,1,.29-.8.88.88,0,0,1,.7-.32h2.87a.94.94,0,0,0,.7-.32,1.17,1.17,0,0,0,.29-.8V19.89a1.16,1.16,0,0,0-.29-.8.94.94,0,0,0-.7-.32H10.19a.89.89,0,0,1-.72-.34,1.16,1.16,0,0,1-.3-.81v-.71A1.1,1.1,0,0,1,9.47,16.14Zm3,4.74a1.22,1.22,0,0,1,.31.8v.13a1.1,1.1,0,0,0,.3.77,1,1,0,0,0,.71.32h.84a.9.9,0,0,1,.7.33,1.2,1.2,0,0,1,.29.79v.73a1.16,1.16,0,0,1-.29.8.89.89,0,0,1-.7.32H13.24a2.24,2.24,0,0,1-.93-.22,2.34,2.34,0,0,1-.81-.58l-.73-.73a2.79,2.79,0,0,1-.51-.9,3.32,3.32,0,0,1-.18-1.06v-.7a1.19,1.19,0,0,1,.29-.82.91.91,0,0,1,.72-.33h.64A.92.92,0,0,1,12.44,20.88Z"/>
    <path class="a" d="M28.35,1.44a.44.44,0,0,1,.28.4.43.43,0,0,0,.29.38,1.42,1.42,0,0,0,.72.16H37a1.42,1.42,0,0,0,.7-.16A.45.45,0,0,0,38,1.84a.44.44,0,0,1,.29-.4A1.54,1.54,0,0,1,39,1.3h.7a1.61,1.61,0,0,1,.73.14.45.45,0,0,1,.29.4.43.43,0,0,0,.29.38,1.35,1.35,0,0,0,.69.16H42a.91.91,0,0,1,.7.34A1.18,1.18,0,0,1,43,3.5v.42a1.16,1.16,0,0,1-.29.8A.92.92,0,0,1,42,5h-.35a1.6,1.6,0,0,0-.69.14c-.2.1-.29.21-.29.34s-.1.21-.31.3a1.58,1.58,0,0,1-.71.15H39a1.61,1.61,0,0,1-.71-.15q-.3-.13-.3-.3c0-.13-.1-.24-.29-.34A1.68,1.68,0,0,0,37,5H29.64a1.68,1.68,0,0,0-.72.14c-.2.1-.29.21-.29.34s-.1.21-.29.3a1.54,1.54,0,0,1-.7.15h-.7a1.61,1.61,0,0,1-.71-.15q-.3-.13-.3-.3c0-.13-.1-.24-.29-.34A1.76,1.76,0,0,0,24.91,5h-.29a.94.94,0,0,1-.7-.32,1.16,1.16,0,0,1-.29-.8V3.5a1.18,1.18,0,0,1,.29-.78.93.93,0,0,1,.7-.34h.29a1.49,1.49,0,0,0,.73-.16.45.45,0,0,0,.29-.38.44.44,0,0,1,.29-.4,1.54,1.54,0,0,1,.72-.14h.7A1.47,1.47,0,0,1,28.35,1.44Zm3.18,8.61c.19-.1.29-.2.29-.31s-.1-.23-.29-.32a1.79,1.79,0,0,0-.7-.12H24.62a.94.94,0,0,1-.7-.32,1.13,1.13,0,0,1-.29-.77V7.76a1.16,1.16,0,0,1,.29-.8.94.94,0,0,1,.7-.32H42a.92.92,0,0,1,.7.32,1.16,1.16,0,0,1,.29.8v.45a1.13,1.13,0,0,1-.29.77.92.92,0,0,1-.7.32H35.54a2,2,0,0,0-.73.12c-.19.09-.29.2-.29.32s.1.21.29.31a1.76,1.76,0,0,0,.73.14H42a.92.92,0,0,1,.7.32,1.13,1.13,0,0,1,.29.77V18a1.13,1.13,0,0,1-.29.77.92.92,0,0,1-.7.32h-.66a1,1,0,0,1-.75-.32,1.1,1.1,0,0,1-.3-.77V14a1.16,1.16,0,0,0-.29-.8,1,1,0,0,0-.73-.32H35.54a1,1,0,0,0-.73.32,1.16,1.16,0,0,0-.29.8v4.29a1.16,1.16,0,0,1-.29.78.89.89,0,0,1-.72.34h-.67a.91.91,0,0,1-.71-.34,1.09,1.09,0,0,1-.31-.78V14a1.16,1.16,0,0,0-.29-.8.91.91,0,0,0-.7-.32H27.35a1,1,0,0,0-.73.32,1.16,1.16,0,0,0-.29.8v4a1.09,1.09,0,0,1-.29.77.93.93,0,0,1-.72.32h-.7a.94.94,0,0,1-.7-.32,1.13,1.13,0,0,1-.29-.77V11.28a1.13,1.13,0,0,1,.29-.77.94.94,0,0,1,.7-.32h6.21A1.62,1.62,0,0,0,31.53,10.05Zm9.25,20.41a2.64,2.64,0,0,1-.94.21H24.62a.91.91,0,0,1-.7-.33,1.2,1.2,0,0,1-.29-.79V20.88a1.16,1.16,0,0,1,.29-.8.94.94,0,0,1,.7-.32H42a.92.92,0,0,1,.7.32,1.16,1.16,0,0,1,.29.8v6.88a2.57,2.57,0,0,1-.23,1,2.22,2.22,0,0,1-.58.81l-.53.42A2.93,2.93,0,0,1,40.78,30.46Zm-9.13-8a1.09,1.09,0,0,0-.73-.26H27.35a1.09,1.09,0,0,0-.73.26.82.82,0,0,0-.29.64.87.87,0,0,0,.29.65,1,1,0,0,0,.73.27h3.57a1,1,0,0,0,.73-.27.87.87,0,0,0,.29-.65A.82.82,0,0,0,31.65,22.42Zm0,4.2a1,1,0,0,0-.73-.27H27.35a1,1,0,0,0-.73.27.89.89,0,0,0-.29.66,1,1,0,0,0,.29.72,1,1,0,0,0,.73.27h3.57a1,1,0,0,0,.73-.27,1,1,0,0,0,.29-.72A.89.89,0,0,0,31.65,26.62ZM31.1,15.47a.94.94,0,0,1-.73.32H27.93a.92.92,0,0,1-.71-.32,1,1,0,0,1-.31-.73,1.07,1.07,0,0,1,.31-.76,1,1,0,0,1,.71-.3h2.44a1,1,0,0,1,.73.3,1.09,1.09,0,0,1,.29.76A1.07,1.07,0,0,1,31.1,15.47Zm-3.88,1.6a1,1,0,0,1,.71-.32h2.44a1,1,0,0,1,.73.32,1.1,1.1,0,0,1,.29.74,1.05,1.05,0,0,1-.29.75,1,1,0,0,1-.73.3H27.93a1,1,0,0,1-.71-.3,1,1,0,0,1-.31-.75A1.07,1.07,0,0,1,27.22,17.07ZM40,22.42a1.07,1.07,0,0,0-.73-.26H35.63a1,1,0,0,0-.7.26.79.79,0,0,0-.29.64.88.88,0,0,0,.29.64.94.94,0,0,0,.7.28h3.65a1,1,0,0,0,.73-.27.87.87,0,0,0,.29-.65A.82.82,0,0,0,40,22.42Zm0,4.2a1,1,0,0,0-.73-.27H35.63a1,1,0,0,0-.7.27.86.86,0,0,0-.29.66,1,1,0,0,0,.27.72,1,1,0,0,0,.72.27h3.65A1,1,0,0,0,40,28a1,1,0,0,0,.29-.72A.89.89,0,0,0,40,26.62Zm-.67-11.15a.9.9,0,0,1-.72.32H36.18a.89.89,0,0,1-.7-.32,1.07,1.07,0,0,1-.29-.73,1.09,1.09,0,0,1,.29-.76.94.94,0,0,1,.7-.3h2.44a1,1,0,0,1,.72.3,1,1,0,0,1,.29.76A1,1,0,0,1,39.34,15.47Zm-3.86,1.6a.92.92,0,0,1,.7-.32h2.44a.93.93,0,0,1,.72.32,1.05,1.05,0,0,1,.29.74,1,1,0,0,1-.29.75,1,1,0,0,1-.72.3H36.18a.94.94,0,0,1-.7-.3,1.05,1.05,0,0,1-.29-.75A1.1,1.1,0,0,1,35.48,17.07Z"/>
    <path class="a" d="M60.41,4.58a1.09,1.09,0,0,0-.31.78v1.5a1.13,1.13,0,0,0,.31.79.93.93,0,0,0,.71.33h3.1a.9.9,0,0,1,.7.34,1.18,1.18,0,0,1,.29.78V27.22a3.1,3.1,0,0,1-.2,1,2.2,2.2,0,0,1-.5.85l-.72.8a2.43,2.43,0,0,1-.81.58,2.24,2.24,0,0,1-.93.22H46.83a1.6,1.6,0,0,1-.69-.13c-.2-.08-.29-.19-.29-.32V9.1a1.13,1.13,0,0,1,.29-.78A.89.89,0,0,1,46.83,8h3.11a1,1,0,0,0,.74-.33,1.16,1.16,0,0,0,.3-.79V5.36a1.12,1.12,0,0,0-.3-.78.94.94,0,0,0-.74-.34H46.83a.9.9,0,0,1-.69-.32,1.11,1.11,0,0,1-.29-.8V2.38a1.06,1.06,0,0,1,.29-.76.87.87,0,0,1,.69-.32H64.22a.88.88,0,0,1,.7.32,1.11,1.11,0,0,1,.29.76v.74a1.16,1.16,0,0,1-.29.8.91.91,0,0,1-.7.32h-3.1A.91.91,0,0,0,60.41,4.58Zm1.81,22.8a1.17,1.17,0,0,0,.29-.8v-.42a1.13,1.13,0,0,0-.29-.77.93.93,0,0,0-.72-.32h-.9a2.17,2.17,0,0,1-.92-.24,3.36,3.36,0,0,1-.86-.56l-.66-.8a2.66,2.66,0,0,1-.53-.89,3.12,3.12,0,0,1-.2-1v-9.5a1.16,1.16,0,0,0-.3-.79,1,1,0,0,0-.74-.33H54.7a.91.91,0,0,0-.7.33,1.2,1.2,0,0,0-.29.79v9.5a2.9,2.9,0,0,1-.21,1,3,3,0,0,1-.54.91l-.73.8a3.24,3.24,0,0,1-.84.56,2.09,2.09,0,0,1-.9.24h-.93a.93.93,0,0,0-.72.32,1.09,1.09,0,0,0-.29.77v.42a1.13,1.13,0,0,0,.29.8.93.93,0,0,0,.72.32H61.5A.93.93,0,0,0,62.22,27.38ZM48.84,11.26a1.15,1.15,0,0,0-.29.79V21a1.06,1.06,0,0,0,.29.76.9.9,0,0,0,.72.32h.38a1,1,0,0,0,.74-.32A1.07,1.07,0,0,0,51,21V12.05a1.16,1.16,0,0,0-.3-.79,1,1,0,0,0-.74-.33h-.38A.91.91,0,0,0,48.84,11.26Zm8.29-6.68a1,1,0,0,0-.74-.34H54.7a.89.89,0,0,0-.7.34,1.16,1.16,0,0,0-.29.78v1.5a1.2,1.2,0,0,0,.29.79.91.91,0,0,0,.7.33h1.69a1,1,0,0,0,.74-.33,1.16,1.16,0,0,0,.3-.79V5.36A1.12,1.12,0,0,0,57.13,4.58Zm3.28,6.68a1.13,1.13,0,0,0-.31.79V21a1,1,0,0,0,.31.76.92.92,0,0,0,.71.32h.38a.9.9,0,0,0,.72-.32,1.11,1.11,0,0,0,.29-.76V12.05a1.2,1.2,0,0,0-.29-.79.91.91,0,0,0-.72-.33h-.38A.93.93,0,0,0,60.41,11.26Z"/>
    <path class="a" d="M70.05,30.38a1.69,1.69,0,0,1-.89.29H69a.88.88,0,0,1-.69-.33,1.15,1.15,0,0,1-.29-.79v-.73a1.73,1.73,0,0,1,.16-.8c.1-.22.23-.32.39-.32a1,1,0,0,0,.59-.28,2.37,2.37,0,0,0,.57-.68l.06-.1a1.94,1.94,0,0,0,.23-.93,1.66,1.66,0,0,0-.26-.93l-.35-.64a3.73,3.73,0,0,1-.43-1,3.85,3.85,0,0,1-.18-1.06V7.31a2.64,2.64,0,0,0-.1-.8c-.07-.21-.17-.32-.31-.32s-.18-.11-.26-.33a2.69,2.69,0,0,1-.11-.79v-.7a2.81,2.81,0,0,1,.11-.82c.08-.22.17-.33.26-.33s.22-.09.29-.28a1.69,1.69,0,0,0,.12-.68.9.9,0,0,1,.31-.68,1,1,0,0,1,.71-.28h.43a1,1,0,0,1,1,1,1.17,1.17,0,0,0,.19.67.55.55,0,0,0,.48.29.42.42,0,0,0,.4-.2,2.39,2.39,0,0,0,.24-.64,2.12,2.12,0,0,1,.32-.8.81.81,0,0,1,.72-.28H74a1,1,0,0,1,.71.28.93.93,0,0,1,.3.68,2.2,2.2,0,0,0,.09.68c.06.19.14.28.23.28s.21.11.28.33a2.83,2.83,0,0,1,.1.82v.7a2.6,2.6,0,0,1-.1.8c-.07.22-.16.32-.28.32s-.17.11-.23.32a3,3,0,0,0-.09.8V22.06a3.76,3.76,0,0,1-.17,1.08,3.37,3.37,0,0,1-.44,1l-.49.74a1.91,1.91,0,0,0-.26,1,1.57,1.57,0,0,0,.2.83,4.27,4.27,0,0,0,.55.71.83.83,0,0,0,.53.29.49.49,0,0,1,.43.32,1.61,1.61,0,0,1,.18.8v.73a1.2,1.2,0,0,1-.29.79.91.91,0,0,1-.7.33h-.12a1.66,1.66,0,0,1-.88-.29,1.92,1.92,0,0,1-.71-.67l-.44-.7a.63.63,0,0,0-.58-.39.86.86,0,0,0-.61.39l-.49.73A2.13,2.13,0,0,1,70.05,30.38Zm1.87-7.55c.17,0,.33-.18.48-.56a4,4,0,0,0,.22-1.39V7.31a1.42,1.42,0,0,0-.21-.78A.55.55,0,0,0,72,6.19a.53.53,0,0,0-.48.34,1.5,1.5,0,0,0-.19.78V20.88a5.86,5.86,0,0,0,.09,1,1.33,1.33,0,0,0,.26.71C71.71,22.76,71.8,22.83,71.92,22.83ZM76.65,1.62a.89.89,0,0,1,.7-.32h9a.9.9,0,0,1,.72.32,1.06,1.06,0,0,1,.29.76v.74a1.11,1.11,0,0,1-.29.8.93.93,0,0,1-.72.32h-.87a.88.88,0,0,0-.68.34,1.09,1.09,0,0,0-.31.78V20.72a2.13,2.13,0,0,0,.12.78c.07.21.16.31.26.31s.21-.1.27-.29a2.4,2.4,0,0,0,.11-.8V8.82A1.15,1.15,0,0,1,85.54,8a.88.88,0,0,1,.69-.33h.12a.91.91,0,0,1,.72.33,1.15,1.15,0,0,1,.29.79V21.33a3.7,3.7,0,0,1-.17,1.07,3.47,3.47,0,0,1-.41.94l-.43.58a2.51,2.51,0,0,1-.6.62,1.07,1.07,0,0,1-.62.28.51.51,0,0,0-.45.32,1.51,1.51,0,0,0-.19.8v.64a1.1,1.1,0,0,0,.31.8.93.93,0,0,0,.68.32h.87a.9.9,0,0,1,.72.32,1.11,1.11,0,0,1,.29.8v.73a1.15,1.15,0,0,1-.29.79.91.91,0,0,1-.72.33h-9a.9.9,0,0,1-.7-.33,1.2,1.2,0,0,1-.29-.79v-.73a1.16,1.16,0,0,1,.29-.8.89.89,0,0,1,.7-.32h.81a1,1,0,0,0,.71-.32,1.1,1.1,0,0,0,.31-.8v-.64a1.6,1.6,0,0,0-.19-.8c-.13-.22-.27-.32-.42-.32a1.08,1.08,0,0,1-.61-.26,3,3,0,0,1-.64-.64L77,23.34a2.92,2.92,0,0,1-.43-.92,3.7,3.7,0,0,1-.18-1.09V8.82A1.2,1.2,0,0,1,76.65,8a.9.9,0,0,1,.7-.33h.14A.93.93,0,0,1,78.2,8a1.13,1.13,0,0,1,.31.79v11.9a2.44,2.44,0,0,0,.1.8c.07.19.15.29.25.29s.15-.1.22-.31a2.74,2.74,0,0,0,.1-.78V5.36a1.09,1.09,0,0,0-.31-.78.91.91,0,0,0-.71-.34h-.81a.92.92,0,0,1-.7-.32,1.16,1.16,0,0,1-.29-.8V2.38A1.11,1.11,0,0,1,76.65,1.62Zm5.53,3c-.1-.23-.22-.34-.33-.34s-.28.11-.38.32a1.88,1.88,0,0,0-.14.8V26.58a1.91,1.91,0,0,0,.14.8c.1.21.22.32.38.32s.23-.12.33-.34a1.73,1.73,0,0,0,.16-.78V5.36A1.73,1.73,0,0,0,82.18,4.58Z"/>
  </g>
  <g>
    <path class="a" d="M110.66,28.55a4,4,0,0,1-2-.47,1.67,1.67,0,0,1-.83-1.58,10.71,10.71,0,0,1,.74-3.46A32,32,0,0,1,111,18.11q1.15-2,2.35-3.81T116,10.62l-6.74,1.55a29.88,29.88,0,0,1-3.65.61,32.59,32.59,0,0,1-3.34.18,6.62,6.62,0,0,1-3.11-.55,1.63,1.63,0,0,1-1-1.39,1.69,1.69,0,0,1,.49-1.08,6,6,0,0,1,1.78-1.4,12.07,12.07,0,0,1,2.87-1,22.11,22.11,0,0,1,3-.54,27.74,27.74,0,0,1,3.09-.18q1.41,0,2.34.09a8.2,8.2,0,0,1,1.53.27c.35.12.52.27.52.43s-.14.23-.41.18l-1-.18a15.09,15.09,0,0,0-3-.1q-6.51.24-8.74,2.3c-.35.31-.52.58-.52.79s.3.52.89.61a13.28,13.28,0,0,0,2.16.15,24,24,0,0,0,3.44-.34c1.43-.23,2.92-.5,4.48-.81l2.2-.44,1.86-.36,2.16-.43.43-.5c.21-.24.36-.41.46-.51a2.29,2.29,0,0,1,1.12-.39A10.08,10.08,0,0,1,121,7.38c.39,0,.59.06.59.18a5.76,5.76,0,0,1-.78.9c.94-.12,1.8-.21,2.57-.28a23,23,0,0,1,2.38-.11,16.84,16.84,0,0,1,2.64.23,14.25,14.25,0,0,1,2.68.72,6.36,6.36,0,0,1,2.07,1.26,2.47,2.47,0,0,1,.8,1.82c0,.38-.15.58-.45.58s-.29-.11-.34-.33a4.27,4.27,0,0,0-.18-.54c-.08-.17-.14-.3-.19-.39A3.57,3.57,0,0,0,131,10.05a11.57,11.57,0,0,0-2.6-.58c-.92-.09-1.75-.14-2.5-.14a28,28,0,0,0-3,.16c-1,.11-2.17.27-3.46.49q-1.71,1.9-3.14,3.81t-2.74,3.93q-3.39,5.33-3.39,8.71c0,.93.2,1.4.6,1.4a1.67,1.67,0,0,0,.5-.11,3.44,3.44,0,0,0,.69-.28c.52-.29.79-.44.82-.44.27,0,.41.11.41.33s-.31.55-.93.79A4.28,4.28,0,0,1,110.66,28.55Z"/>
    <path class="a" d="M129.41,27.26a2.87,2.87,0,0,1-2-.65,2.41,2.41,0,0,1-.73-1.91,6.48,6.48,0,0,1,.37-1.91,11.67,11.67,0,0,1,.75-1.8,14.18,14.18,0,0,0-3.26,2.88c-.8,1-1.53,1.93-2.17,2.77a1.13,1.13,0,0,1-.69.4,3.88,3.88,0,0,1-.84.11A4.27,4.27,0,0,1,120,27c-.4-.08-.6-.27-.6-.56a3.68,3.68,0,0,1,.41-1.31c.27-.59.57-1.17.89-1.75s.56-1,.71-1.33c.42-.74,1-1.66,1.66-2.75s1.46-2.27,2.34-3.53,1.82-2.51,2.81-3.74a36.31,36.31,0,0,1,3.07-3.39,17.12,17.12,0,0,1,3.14-2.45,5.9,5.9,0,0,1,2.94-.91,2.6,2.6,0,0,1,1.64.46,1.82,1.82,0,0,1,.6,1.52,4.25,4.25,0,0,1-.86,2.34,16.2,16.2,0,0,1-2.23,2.57,36,36,0,0,1-2.94,2.52c-1,.8-2,1.54-3,2.21s-1.74,1.23-2.36,1.66-1.36.91-2.06,1.35a11.43,11.43,0,0,0-1.92,1.49,4.49,4.49,0,0,0-.41.58c-.2.31-.4.66-.61,1s-.41.74-.58,1.07-.29.54-.34.66l1.08-1L125,22.32c.62-.52,1.24-1,1.88-1.53a18.47,18.47,0,0,1,1.71-1.2,2.63,2.63,0,0,1,1.13-.47,1.37,1.37,0,0,1,.86.25.9.9,0,0,1,.33.76c-.24.43-.54.92-.89,1.47a15.7,15.7,0,0,0-.93,1.7,3.8,3.8,0,0,0-.41,1.62,1.16,1.16,0,0,0,.36.9,1.24,1.24,0,0,0,.87.32,4.15,4.15,0,0,0,2-.54,10.94,10.94,0,0,0,1.88-1.28,19.8,19.8,0,0,0,1.53-1.42c.43-.46.75-.78.95-1a.24.24,0,0,1,.18-.07q.3,0,.3.36c0,.09-.11.26-.34.5s-.38.41-.48.5c-.62.65-1.26,1.29-1.92,1.91a8.94,8.94,0,0,1-2.1,1.53A5.15,5.15,0,0,1,129.41,27.26Zm-4.73-7.2c.6-.39,1.42-.93,2.46-1.64s2.16-1.52,3.37-2.43a43.36,43.36,0,0,0,3.42-2.88,20.07,20.07,0,0,0,2.66-3,4.77,4.77,0,0,0,1-2.68,1.26,1.26,0,0,0-.3-1,.93.93,0,0,0-.59-.25,3.53,3.53,0,0,0-2,.79,16,16,0,0,0-2.33,2.11A37.47,37.47,0,0,0,130,12c-.79,1-1.55,2.09-2.27,3.13s-1.34,2-1.88,2.86S125,19.55,124.68,20.06Z"/>
    <path class="a" d="M139.08,27.26a5.38,5.38,0,0,1-2.86-.76A2.72,2.72,0,0,1,135,24a5,5,0,0,1,.61-2.25,9,9,0,0,1,1.62-2.18,9.38,9.38,0,0,1,2.18-1.64,4.88,4.88,0,0,1,2.32-.63,1.66,1.66,0,0,1,1,.31,1.08,1.08,0,0,1,.41.92,2.29,2.29,0,0,1-.65,1.47,9,9,0,0,1-1.6,1.43A16,16,0,0,1,139,22.56a13.08,13.08,0,0,1-1.6.7,3.82,3.82,0,0,0-.11.9,2.5,2.5,0,0,0,.46,1.48,1.88,1.88,0,0,0,1.62.64,4.9,4.9,0,0,0,2.11-.45,8.23,8.23,0,0,0,1.73-1.11c.52-.45,1-.87,1.41-1.28l.86-.85L146,22a.5.5,0,0,1,.34-.11.35.35,0,0,1,.29.13c.08.08.05.18-.07.3s-.27.3-.5.53-.46.45-.67.68-.37.39-.47.49a12.6,12.6,0,0,1-3.12,2.46A6,6,0,0,1,139.08,27.26Zm-1.6-4.72a4.22,4.22,0,0,0,1.06-.45,11.22,11.22,0,0,0,1.36-.88c.2-.17.47-.42.82-.76a3.64,3.64,0,0,0,.71-.86,1.74,1.74,0,0,0,.26-.76c0-.29-.16-.43-.49-.43a1.63,1.63,0,0,0-.55.11,2.53,2.53,0,0,0-.9.72l-.82.9a11.6,11.6,0,0,0-.83,1.17A6.83,6.83,0,0,0,137.48,22.54Z"/>
    <path class="a" d="M152.7,27.62a4,4,0,0,1-2.19-.58,2.12,2.12,0,0,1-.9-1.94,5.69,5.69,0,0,1,.71-2.31,12.36,12.36,0,0,1,1.75-2.66,4.53,4.53,0,0,1-.47.05l-.61,0a4,4,0,0,1-1.12-.16,1.06,1.06,0,0,1-.74-.63l-.74.9c-.4.48-.86,1-1.36,1.56s-1,1.05-1.4,1.46-.71.61-.85.61a.34.34,0,0,1-.19-.07.22.22,0,0,1-.11-.18q0-.18.39-.54l.58-.54a24,24,0,0,0,2.1-2.43c.46-.63.77-1.11.95-1.42a1.79,1.79,0,0,1-.23-1,5.53,5.53,0,0,1,.25-1.6,5,5,0,0,1,.66-1.46,1.13,1.13,0,0,1,2,0,2.21,2.21,0,0,1,.41,1.19,1.72,1.72,0,0,1-.33.93,7.8,7.8,0,0,1-.77,1c-.28.32-.52.57-.72.76a1.27,1.27,0,0,0,1.3.86,1.73,1.73,0,0,0,1.12-.36c.3-.24.57-.47.82-.7a1.1,1.1,0,0,1,.78-.34,1.43,1.43,0,0,1,.93.34,1,1,0,0,1,.37.85,14,14,0,0,0-1.4,1.74,15.09,15.09,0,0,0-1.28,2.27,5.2,5.2,0,0,0-.52,2.11,1,1,0,0,0,.43.93,2.17,2.17,0,0,0,1.13.26,3.28,3.28,0,0,0,1.42-.36,12.21,12.21,0,0,0,1.49-.87,13.94,13.94,0,0,0,1.43-1.19c.63-.57,1.37-1.3,2.21-2.19a.21.21,0,0,1,.15-.07q.3,0,.3.39,0,.11-.45.6c-.3.32-.65.69-1.06,1.09s-.8.79-1.17,1.14a8.23,8.23,0,0,1-.82.7A16,16,0,0,1,155,27,4.78,4.78,0,0,1,152.7,27.62Z"/>
    <path class="a" d="M162.86,27.26A5.42,5.42,0,0,1,160,26.5,2.73,2.73,0,0,1,158.77,24a4.83,4.83,0,0,1,.61-2.25A9,9,0,0,1,161,19.55a9.17,9.17,0,0,1,2.18-1.64,4.85,4.85,0,0,1,2.32-.63,1.68,1.68,0,0,1,1,.31,1.08,1.08,0,0,1,.41.92,2.29,2.29,0,0,1-.65,1.47,8.72,8.72,0,0,1-1.61,1.43,16.68,16.68,0,0,1-1.91,1.15,13.79,13.79,0,0,1-1.6.7,3.36,3.36,0,0,0-.11.9,2.5,2.5,0,0,0,.46,1.48,1.86,1.86,0,0,0,1.62.64,4.82,4.82,0,0,0,2.1-.45A7.74,7.74,0,0,0,167,24.72c.52-.45,1-.87,1.42-1.28l.85-.85.6-.59a.45.45,0,0,1,.33-.11.35.35,0,0,1,.3.13c.07.08.05.18-.07.3a7.1,7.1,0,0,1-.51.53c-.23.22-.46.45-.67.68l-.46.49a12.45,12.45,0,0,1-3.13,2.46A6,6,0,0,1,162.86,27.26Zm-1.6-4.72a4.22,4.22,0,0,0,1.06-.45,12.06,12.06,0,0,0,1.36-.88c.2-.17.47-.42.82-.76a3.55,3.55,0,0,0,.7-.86,1.62,1.62,0,0,0,.26-.76c0-.29-.16-.43-.48-.43a1.73,1.73,0,0,0-.56.11,2.52,2.52,0,0,0-.89.72l-.82.9a10.26,10.26,0,0,0-.84,1.17A6.76,6.76,0,0,0,161.26,22.54Z"/>
    <path class="a" d="M172.65,27.87a7.57,7.57,0,0,1-2.59-.51,6.37,6.37,0,0,1-2.38-1.47,3.17,3.17,0,0,1-1-2.34,1.86,1.86,0,0,1,.21-.87.81.81,0,0,1,.8-.39,1.33,1.33,0,0,1,.63.2,2.57,2.57,0,0,1,.56.37A14.28,14.28,0,0,0,170.64,21c.59-.75,1.21-1.51,1.84-2.28a14.38,14.38,0,0,1,2-2,4.52,4.52,0,0,1,2.18-1,1.82,1.82,0,0,1,.41,0,3.42,3.42,0,0,1,1.43.32A.82.82,0,0,1,179,17q-.08.32-.69.36c-.41,0-.87,0-1.37,0a3.31,3.31,0,0,0-1.32.25,1,1,0,0,0-.56,1.05,2.25,2.25,0,0,0,.33.9c.23.41.47.88.75,1.42a10.66,10.66,0,0,1,.67,1.71,4.44,4.44,0,0,1,.15,1.76,4.51,4.51,0,0,0,1.24-.12,8.15,8.15,0,0,0,1.86-.65A6.63,6.63,0,0,0,182,22.29a.33.33,0,0,1,.22-.11.26.26,0,0,1,.26.18.29.29,0,0,1,0,.32,8.93,8.93,0,0,1-1,1.05,5.52,5.52,0,0,1-1.47,1,8,8,0,0,1-1.9.63,5.31,5.31,0,0,1-1.23.13,2.82,2.82,0,0,1-1.63,1.83A6,6,0,0,1,172.65,27.87Zm-.23-1.05a2.72,2.72,0,0,0,1.3-.36,3,3,0,0,0,1.16-1.15,19.67,19.67,0,0,1-3.13-.34,9.66,9.66,0,0,1-2.94-1,2.62,2.62,0,0,0,1.1,2.24A4.61,4.61,0,0,0,172.42,26.82Zm2.46-2.37v-.11a4.69,4.69,0,0,0-.34-1.58c-.22-.63-.46-1.27-.7-1.93a10,10,0,0,1-.52-1.75c-.6.75-1.2,1.46-1.81,2.13s-1.26,1.34-1.95,2a25.47,25.47,0,0,0,2.62.81A13.56,13.56,0,0,0,174.88,24.45Z"/>
    <path class="a" d="M190.06,27.11a2.51,2.51,0,0,1-1.79-.56,2.56,2.56,0,0,1-.76-1.42,7.72,7.72,0,0,1-.13-1.73A17.62,17.62,0,0,1,186,25a9.88,9.88,0,0,1-1.78,1.46,3.64,3.64,0,0,1-2,.61A2.06,2.06,0,0,1,181,26.7a1.27,1.27,0,0,1-.49-1.1,5.19,5.19,0,0,1,.84-2.66,13.51,13.51,0,0,1,2.14-2.69,12.3,12.3,0,0,1,2.79-2.07,6.06,6.06,0,0,1,2.79-.79,5,5,0,0,1,1,.15,4.44,4.44,0,0,1,1.21.43.87.87,0,0,1,.54.79c0,.17-.11.26-.33.29a.7.7,0,0,0-.49.21A6.28,6.28,0,0,0,190,23.33c0,.24,0,.57,0,1a2.77,2.77,0,0,0,.28,1.08.79.79,0,0,0,.76.47,2.86,2.86,0,0,0,1.68-.65,13.8,13.8,0,0,0,1.78-1.56L196.16,22a.19.19,0,0,1,.15-.1.38.38,0,0,1,.32.19.26.26,0,0,1,0,.35c-.6.67-1.17,1.27-1.73,1.8s-1.14,1-1.73,1.51A5.13,5.13,0,0,1,190.06,27.11Zm-5.8-1.73A6.58,6.58,0,0,0,186,23.91a17.18,17.18,0,0,0,1.67-2.31A19.52,19.52,0,0,0,189,19a4.15,4.15,0,0,0-2,.63,10.77,10.77,0,0,0-2.12,1.59,10.39,10.39,0,0,0-1.66,2,3.57,3.57,0,0,0-.65,1.85c0,.46.19.68.56.68A2.76,2.76,0,0,0,184.26,25.38Z"/>
    <path class="a" d="M198.88,27.58a1.16,1.16,0,0,1-.8-.29.93.93,0,0,1-.32-.72,1.22,1.22,0,0,1,.43-.92,1.51,1.51,0,0,1,1-.37,1.13,1.13,0,0,1,.79.27.92.92,0,0,1,.29.7,1.22,1.22,0,0,1-.41.93A1.35,1.35,0,0,1,198.88,27.58Z"/>
    <path class="a" d="M204.09,28.16a1.28,1.28,0,0,1-1.45-1.44,6.46,6.46,0,0,1,.52-2.31,13.18,13.18,0,0,1,1.39-2.61,9.35,9.35,0,0,1,2-2.12,3.62,3.62,0,0,1,2.22-.85,1.58,1.58,0,0,1,.52.09.37.37,0,0,1,.26.38.89.89,0,0,1-.09.16.7.7,0,0,1-.13.16c-.35.32-.78.72-1.3,1.23a20.64,20.64,0,0,0-1.59,1.71,10.87,10.87,0,0,0-1.32,2l-.41.83a2.55,2.55,0,0,0-.29,1.11.42.42,0,0,0,.48.47,2,2,0,0,0,.6-.11A8.5,8.5,0,0,0,208.53,25a16.82,16.82,0,0,0,2.22-2.55c.62-.89,1.15-1.62,1.6-2.2a1.87,1.87,0,0,1,.78-.14,1.46,1.46,0,0,1,.69.16.6.6,0,0,1,.32.59,8.91,8.91,0,0,0-1.23,2,5.34,5.34,0,0,0-.56,2.36,1,1,0,0,0,1.12,1.12,2,2,0,0,0,1.41-.69A7.83,7.83,0,0,0,216.07,24a10.49,10.49,0,0,0,.74-1.42l-.35-1c-.16-.47-.32-.94-.46-1.41a4.1,4.1,0,0,1-.23-.92.67.67,0,0,1,.24-.57,1,1,0,0,1,.62-.18,1.64,1.64,0,0,1,1.37.68,2.35,2.35,0,0,1,.53,1.44,3,3,0,0,1-.1.72,2.57,2.57,0,0,1-.28.69,9.23,9.23,0,0,0,.51,1.33,1.11,1.11,0,0,0,1.09.68,2.92,2.92,0,0,0,1.75-.47,12.27,12.27,0,0,0,1.6-1.4.27.27,0,0,1,.15,0c.22,0,.34.1.34.29a.54.54,0,0,1-.15.33,17.72,17.72,0,0,1-1.58,1.47,3.14,3.14,0,0,1-2.07.76,2.86,2.86,0,0,1-2.53-1.37,6.77,6.77,0,0,1-.95,1.58,5.87,5.87,0,0,1-1.41,1.32,3.18,3.18,0,0,1-1.77.52,2.76,2.76,0,0,1-1.9-.63,3.28,3.28,0,0,1-.7-2.47q-.5.48-1.29,1.17c-.53.47-1.11.94-1.73,1.41a13.19,13.19,0,0,1-1.82,1.17A3.57,3.57,0,0,1,204.09,28.16Z"/>
    <path class="a" d="M224.89,27.62a3.52,3.52,0,0,1-2.18-.67,2.25,2.25,0,0,1-.69-2.21,10.86,10.86,0,0,1,.37-1.43,15.11,15.11,0,0,1,.77-1.87,8.84,8.84,0,0,1,1-1.64,1.54,1.54,0,0,1,1.12-.68,1.5,1.5,0,0,1,.85.27.83.83,0,0,1,.41.74,1.27,1.27,0,0,1-.37.7c-.25.3-.54.67-.87,1.12a7.63,7.63,0,0,0-.88,1.47,4.1,4.1,0,0,0-.37,1.75,1.44,1.44,0,0,0,.39,1.17,1.52,1.52,0,0,0,.95.3,3.63,3.63,0,0,0,1.52-.37,10.28,10.28,0,0,0,1.64-1A12.92,12.92,0,0,0,230,24.12c.64-.57,1.37-1.3,2.22-2.19a.21.21,0,0,1,.15-.07c.19,0,.29.13.29.39,0,.07-.14.27-.44.6s-.65.69-1.06,1.09-.8.79-1.17,1.14a9.59,9.59,0,0,1-.82.7,16.77,16.77,0,0,1-2,1.26A4.78,4.78,0,0,1,224.89,27.62Zm2.71-10.19a1.31,1.31,0,0,1-.94-.38,1.2,1.2,0,0,1-.39-.92,1.23,1.23,0,0,1,.39-.93,1.25,1.25,0,0,1,.94-.4,1.31,1.31,0,0,1,1,.4,1.25,1.25,0,0,1,.41.93,1.22,1.22,0,0,1-.41.92A1.38,1.38,0,0,1,227.6,17.43Z"/>
    <path class="a" d="M230.92,27a4.22,4.22,0,0,1-.77-.11c-.33-.07-.5-.23-.5-.47a3.61,3.61,0,0,1,.39-1.33c.26-.57.55-1.15.86-1.73l.72-1.33c.42-.74,1-1.66,1.64-2.75s1.45-2.27,2.33-3.53,1.81-2.51,2.81-3.74a35,35,0,0,1,3.07-3.39,17.37,17.37,0,0,1,3.12-2.45,5.75,5.75,0,0,1,2.92-.91,3.62,3.62,0,0,1,1.58.34A1.34,1.34,0,0,1,249.82,7a4.14,4.14,0,0,1-.82,2.3,14.86,14.86,0,0,1-2.16,2.49,30.78,30.78,0,0,1-3,2.44c-1.07.8-2.16,1.55-3.25,2.25s-2.11,1.35-3,1.91l-2.31,1.39c-.2.31-.45.75-.74,1.31l-.71,1.35c.42-.31,1-.77,1.75-1.38s1.57-1.25,2.47-1.89a23.41,23.41,0,0,1,2.66-1.66,5,5,0,0,1,2.27-.68,1.33,1.33,0,0,1,1.12.43,1.85,1.85,0,0,1,.33,1.15,2.19,2.19,0,0,1-.69,1.57A6.54,6.54,0,0,1,242,21.21a11.46,11.46,0,0,1-2.22.83,8.33,8.33,0,0,1-2,.28h-.3a1.53,1.53,0,0,1-.3,0,5.66,5.66,0,0,0,1.56,2.27,3.69,3.69,0,0,0,2.53,1,6.8,6.8,0,0,0,2.85-.55,9.37,9.37,0,0,0,2.12-1.35c.61-.53,1.15-1,1.62-1.48a.49.49,0,0,1,.3-.18c.12,0,.18.1.18.29a.74.74,0,0,1-.26.57c-.42.41-.7.7-.85.87a5.25,5.25,0,0,1-.41.41l-.78.6-1.44,1a7.19,7.19,0,0,1-1.47.73,8.8,8.8,0,0,1-1.37.42,6.93,6.93,0,0,1-1.49.16,5.3,5.3,0,0,1-1.32-.16,3.6,3.6,0,0,1-1.25-.6,5.27,5.27,0,0,1-1.52-1.62,5.53,5.53,0,0,1-.82-2,6.08,6.08,0,0,0-1.14.8,6.49,6.49,0,0,0-1.26,1.42,3.94,3.94,0,0,0-.69,1.89,5.79,5.79,0,0,1-.63.18A3.11,3.11,0,0,1,230.92,27Zm4.8-8.5c.57-.38,1.34-.88,2.3-1.49s2-1.3,3.11-2.05,2.16-1.55,3.18-2.38a21.76,21.76,0,0,0,2.62-2.48,5.55,5.55,0,0,0,1.36-2.32.77.77,0,0,1,0-.15.65.65,0,0,0,0-.11c0-.36-.2-.57-.6-.64a.54.54,0,0,0-.22,0h-.22a4.38,4.38,0,0,0-2.51,1A19,19,0,0,0,242,10.32a38.12,38.12,0,0,0-2.68,3.13c-.85,1.09-1.59,2.09-2.22,3S236,18.06,235.72,18.54Zm1.71,3.1a5.89,5.89,0,0,0,1.26-.18,8.35,8.35,0,0,0,1.57-.54,5.11,5.11,0,0,0,1.32-.86,1.59,1.59,0,0,0,.54-1.19c0-.29-.18-.43-.52-.43a2.21,2.21,0,0,0-.93.36,14.91,14.91,0,0,0-1.36.86c-.49.34-.93.66-1.32,1s-.7.55-.9.72a.18.18,0,0,0,0,.11c0,.07,0,.12.14.14A.84.84,0,0,0,237.43,21.64Z"/>
    <path class="a" d="M249.6,27.62a3.52,3.52,0,0,1-2.18-.67,2.23,2.23,0,0,1-.69-2.21,9.46,9.46,0,0,1,.37-1.43,15,15,0,0,1,.76-1.87,8.86,8.86,0,0,1,1-1.64,1.33,1.33,0,0,1,2-.41.85.85,0,0,1,.41.74,1.35,1.35,0,0,1-.37.7c-.25.3-.54.67-.88,1.12a8.14,8.14,0,0,0-.87,1.47,4.1,4.1,0,0,0-.37,1.75,1.44,1.44,0,0,0,.39,1.17,1.5,1.5,0,0,0,1,.3,3.63,3.63,0,0,0,1.52-.37,10.74,10.74,0,0,0,1.64-1,12.92,12.92,0,0,0,1.43-1.19q.94-.86,2.22-2.19a.17.17,0,0,1,.14-.07q.3,0,.3.39a2,2,0,0,1-.44.6c-.3.32-.66.69-1.07,1.09s-.8.79-1.17,1.14a7.21,7.21,0,0,1-.82.7,16,16,0,0,1-2,1.26A4.74,4.74,0,0,1,249.6,27.62Zm2.71-10.19a1.33,1.33,0,0,1-.95-.38,1.23,1.23,0,0,1-.39-.92,1.35,1.35,0,0,1,1.34-1.33,1.33,1.33,0,0,1,1,.4,1.25,1.25,0,0,1,.41.93,1.22,1.22,0,0,1-.41.92A1.39,1.39,0,0,1,252.31,17.43Z"/>
  </g>
</svg>
